<?xml version="1.0" standalone="no"?><!-- Generator: Gravit.io --><svg xmlns="http://www.w3.org/2000/svg" xmlns:xlink="http://www.w3.org/1999/xlink" style="isolation:isolate" viewBox="71.895 207.447 33.105 33.105" width="33.105" height="33.105"><path d=" M 93.744 207.447 C 93.015 207.447 92.42 208.042 92.42 208.772 L 92.42 210.096 C 92.42 210.825 93.015 211.42 93.744 211.42 L 101.689 211.42 C 102.419 211.42 103.014 210.825 103.014 210.096 L 103.014 208.772 C 103.014 208.042 102.419 207.447 101.689 207.447 L 93.744 207.447 Z  M 93.144 212.661 C 92.019 214.738 91.002 218.049 90.579 220.213 C 93.847 221.411 95.731 224.53 95.731 228.8 C 95.731 233.477 93.956 236.82 91.406 238.96 C 91.893 239.418 92.505 239.721 93.165 239.828 C 93.173 239.831 93.178 239.847 93.185 239.849 C 93.348 239.875 93.511 239.891 93.682 239.891 L 101.689 239.891 C 101.86 239.891 102.023 239.875 102.186 239.849 C 102.194 239.847 102.199 239.831 102.207 239.829 C 103.782 239.574 105 238.224 105 236.58 L 105 221.889 C 105 220.353 103.738 215.442 102.248 212.682 C 102.07 212.721 101.878 212.744 101.689 212.744 L 93.744 212.744 C 93.542 212.74 93.34 212.713 93.144 212.661 Z  M 84.62 217.358 C 84.266 217.35 83.958 217.399 83.958 217.399 C 83.958 217.399 83.024 218.92 82.923 220.689 C 81.232 218.114 79.102 220.335 78.309 218.289 C 78.309 221.554 80.895 220.94 81.847 221.352 C 78.943 221.352 79.966 223.85 77.646 223.917 C 79.711 224.83 81.559 224.644 82.923 221.993 C 82.292 223.837 81.834 225.327 84.413 226.876 C 85.093 225.661 84.764 223.452 84.082 221.683 C 85.318 223.729 87.027 225.132 89.275 223.711 C 87.472 223.24 88.279 221.918 85.095 221.413 C 87.141 221.693 88.538 221.983 89.109 219.821 C 87.462 220.446 86.805 217.969 84.102 220.772 C 84.092 220.778 84.118 218.998 85.613 217.668 C 85.385 217.446 84.974 217.366 84.62 217.358 Z  M 77.729 220.958 C 77.471 221.041 77.298 221.114 77.274 221.124 C 73.804 222.418 71.895 225.51 71.895 229.856 C 71.895 235.652 77.049 240.553 83.151 240.553 C 88.572 240.553 94.406 236.875 94.406 228.8 C 94.406 225.006 92.829 222.381 89.999 221.414 C 89.965 221.399 89.93 221.385 89.895 221.372 C 89.705 221.695 89.46 221.982 89.172 222.221 C 89.288 222.322 89.394 222.371 89.606 222.428 C 90.116 222.56 90.519 222.984 90.599 223.503 C 90.679 224.025 90.444 224.544 89.999 224.828 C 89.179 225.345 88.344 225.614 87.516 225.614 C 87.035 225.61 86.558 225.519 86.109 225.345 C 86.083 226.141 85.917 226.894 85.571 227.518 C 85.4 227.831 85.109 228.063 84.765 228.159 C 84.654 228.19 84.526 228.2 84.412 228.2 C 84.174 228.2 83.937 228.138 83.73 228.014 C 82.354 227.186 81.651 226.304 81.33 225.427 C 80.81 225.637 80.255 225.742 79.695 225.738 C 78.891 225.738 78.04 225.529 77.109 225.117 C 76.543 224.866 76.225 224.257 76.343 223.648 C 76.464 223.044 76.989 222.605 77.605 222.593 C 77.97 222.582 77.999 222.573 78.33 222.034 C 78.387 221.942 78.449 221.828 78.516 221.724 C 78.211 221.516 77.945 221.257 77.729 220.958 Z " fill="rgb(255,255,255)"/></svg>