<?xml version="1.0" standalone="no"?><!-- Generator: Gravit.io --><svg xmlns="http://www.w3.org/2000/svg" xmlns:xlink="http://www.w3.org/1999/xlink" style="isolation:isolate" viewBox="224.002 206.619 42.891 32.381" width="42.891" height="32.381"><path d=" M 237.991 211.154 C 238.14 211.195 238.835 211.548 239.285 212.43 C 239.456 212.766 239.543 213.137 239.589 213.524 C 242.339 212.119 245.525 211.028 248.802 211.028 C 251.102 211.028 253.234 211.273 255.206 211.751 C 254.299 209.78 252.532 207.295 249.235 206.636 C 249.102 206.61 248.966 206.613 248.835 206.647 L 238.005 209.415 C 237.609 209.516 237.331 209.871 237.328 210.279 C 237.324 210.688 237.597 211.047 237.991 211.154 Z  M 248.802 235.581 C 247.428 235.581 246.099 235.419 244.824 235.154 C 244.77 235.587 244.667 236.01 244.572 236.397 C 244.368 237.224 244.191 237.938 244.64 238.512 C 244.815 238.735 245.147 239 245.735 239 L 249.047 239 C 249.202 239 249.373 238.949 249.509 238.872 C 249.57 238.84 249.632 238.809 249.695 238.78 C 251.636 237.836 252.996 236.657 253.773 235.26 C 252.125 235.479 250.464 235.587 248.802 235.581 L 248.802 235.581 Z  M 266.332 222.368 C 262.814 216.037 256.915 212.827 248.802 212.827 C 242.109 212.827 235.61 217.98 233.344 219.977 C 232.216 218.267 229.525 214.986 225.488 214.986 C 225.094 214.986 224.574 215.16 224.297 215.648 C 224.022 216.132 224.082 216.712 224.476 217.371 C 225.937 219.823 226.677 221.896 226.677 223.529 C 226.677 225.727 225.301 228.844 224.349 230.157 C 223.973 230.675 223.898 231.251 224.145 231.734 C 224.381 232.197 224.87 232.473 225.453 232.473 C 230.367 232.473 232.612 229.193 233.505 227.269 C 235.798 229.281 241.72 233.782 248.801 233.782 C 257.057 233.782 262.697 231.377 266.044 226.429 C 266.667 225.509 267.442 224.363 266.332 222.368 Z  M 257.153 224.609 C 256.511 224.609 255.917 224.266 255.595 223.709 C 255.274 223.153 255.274 222.467 255.596 221.91 C 255.917 221.353 256.512 221.011 257.154 221.011 C 258.148 221.011 258.953 221.817 258.953 222.81 C 258.953 223.804 258.147 224.609 257.153 224.609 L 257.153 224.609 Z " fill-rule="evenodd" fill="rgb(255,255,255)"/></svg>